<svg width="72" height="28" viewBox="0 0 72 28" fill="none" xmlns="http://www.w3.org/2000/svg">
<path d="M58.5995 21.9748C60.2286 21.9748 61.5557 23.268 61.6103 24.8838L61.6121 24.9874C61.6121 26.6512 60.2633 28 58.5995 28C56.9703 28 55.6432 26.7068 55.5886 25.091L55.5869 24.9874C55.5869 23.3236 56.9356 21.9748 58.5995 21.9748ZM21.213 22.1728C21.3435 22.1693 21.4699 22.2184 21.5638 22.3091C21.6576 22.3997 21.7112 22.5243 21.7123 22.6548V25.3403C21.7123 26.9886 20.7439 27.8192 19.2376 27.8192C17.7313 27.8192 16.7845 27.0015 16.7845 25.3876V22.6548C16.7867 22.5223 16.8424 22.3964 16.9388 22.3056C17.0353 22.2149 17.1643 22.1669 17.2967 22.1728C17.4271 22.1693 17.5535 22.2184 17.6474 22.3091C17.7413 22.3997 17.7948 22.5243 17.7959 22.6548V25.3489C17.7959 26.3775 18.3468 26.9198 19.2548 26.9198C20.1629 26.9198 20.7009 26.4076 20.7009 25.3876V22.6548C20.7031 22.5223 20.7587 22.3964 20.8552 22.3056C20.9516 22.2149 21.0807 22.1669 21.213 22.1728ZM28.3013 22.134C29.0116 22.111 29.7085 22.3312 30.2767 22.7581C30.4519 22.8799 30.5239 23.104 30.4525 23.3051C30.3811 23.5062 30.1839 23.6347 29.9711 23.6188C29.8617 23.6213 29.7544 23.5881 29.6655 23.5241C29.2795 23.2043 28.794 23.0292 28.2927 23.0292C27.7795 23.0279 27.2876 23.2344 26.9292 23.6017C26.5947 23.9445 26.4031 24.4001 26.3904 24.8764L26.3904 24.9788C26.3741 25.4933 26.5674 25.9923 26.926 26.3615C27.2847 26.7307 27.7779 26.9384 28.2927 26.937C28.8213 26.9474 29.3345 26.7584 29.7301 26.4076C29.8159 26.336 29.9239 26.2965 30.0357 26.2957C30.2828 26.2925 30.4909 26.4799 30.5134 26.7261C30.5154 26.8601 30.455 26.9873 30.3498 27.0704C29.7728 27.5758 29.0248 27.8421 28.2582 27.8149C27.492 27.8394 26.7485 27.5526 26.1972 27.0199C25.6765 26.5168 25.3691 25.8349 25.3349 25.1148L25.3317 24.9874C25.3311 24.2101 25.6476 23.4661 26.2081 22.9275C26.7686 22.389 27.5246 22.1024 28.3013 22.134ZM46.803 22.2287C47.0513 22.2287 47.2527 22.4301 47.2527 22.6785C47.2527 22.9268 47.0513 23.1282 46.803 23.1282H45.3956V27.3071C45.3714 27.5707 45.1503 27.7723 44.8857 27.7723C44.621 27.7723 44.3999 27.5707 44.3757 27.3071V23.1282H42.977C42.7286 23.1282 42.5272 22.9268 42.5272 22.6785C42.5272 22.4301 42.7286 22.2287 42.977 22.2287H46.803ZM36.5816 22.134C36.8447 22.1255 37.0851 22.2818 37.1841 22.5257L39.336 27.1005C39.3746 27.1626 39.3954 27.234 39.3963 27.3071C39.3963 27.4326 39.3456 27.5529 39.2556 27.6404C39.1656 27.728 39.044 27.7754 38.9185 27.7719C38.6979 27.776 38.499 27.6394 38.4236 27.4319L37.9545 26.399H35.1571L34.6708 27.462C34.596 27.6544 34.4079 27.7786 34.2017 27.7719C34.0792 27.7754 33.9605 27.7294 33.8722 27.6444C33.784 27.5594 33.7337 27.4425 33.7326 27.32C33.7371 27.2429 33.7592 27.1678 33.7971 27.1005L35.949 22.5257C36.0495 22.2811 36.2916 22.1249 36.5558 22.134H36.5816ZM65.9244 22.1814C66.137 22.1824 66.3353 22.2888 66.4537 22.4654L69.3329 26.0375V22.6462C69.3568 22.3895 69.5722 22.1932 69.83 22.1932C70.0878 22.1932 70.3032 22.3895 70.3271 22.6462V27.2813C70.3271 27.4106 70.2752 27.5345 70.1829 27.6252C70.0906 27.7158 69.9658 27.7656 69.8365 27.7633H69.7934C69.5809 27.7581 69.3845 27.6487 69.2684 27.4706L66.3031 23.7953V27.2985C66.2792 27.5552 66.0638 27.7514 65.806 27.7514C65.5483 27.7514 65.3329 27.5552 65.309 27.2985V22.6677C65.3123 22.5353 65.3682 22.4096 65.4643 22.3184C65.5603 22.2272 65.6887 22.1779 65.8211 22.1814H65.9244ZM51.3283 22.1936C51.5907 22.1936 51.8099 22.3935 51.834 22.6548V27.2899C51.8099 27.5512 51.5907 27.751 51.3283 27.751C51.0659 27.751 50.8468 27.5512 50.8226 27.2899V22.6548C50.8468 22.3935 51.0659 22.1936 51.3283 22.1936ZM10.1525 22.2072C11.9216 22.2072 13.1589 23.3491 13.2107 24.8543L13.2124 24.953C13.2124 26.5066 11.96 27.716 10.1525 27.716H8.51276C8.37928 27.7206 8.24959 27.6711 8.15315 27.5787C8.05671 27.4863 8.0017 27.3589 8.00062 27.2253V22.6978C8.0017 22.5643 8.05671 22.4368 8.15315 22.3444C8.24959 22.252 8.37928 22.2025 8.51276 22.2072H10.1525ZM4.19168 22.3254C4.2771 22.4067 4.32539 22.5196 4.32524 22.6376C4.32539 22.7555 4.2771 22.8684 4.19168 22.9498C4.10625 23.0311 3.99117 23.0738 3.87335 23.0679H1.02859V24.5054H3.50753C3.74522 24.5054 3.9379 24.6981 3.9379 24.9358C3.9379 25.1734 3.74522 25.3661 3.50753 25.3661H1.02859V26.8466H3.91639C4.03493 26.8395 4.15115 26.8817 4.23754 26.9632C4.32392 27.0446 4.37279 27.1582 4.37258 27.277C4.37279 27.3957 4.32392 27.5093 4.23754 27.5908C4.16349 27.6607 4.06753 27.7016 3.96697 27.7074L0.529358 27.7073C0.397319 27.7168 0.267004 27.6729 0.167531 27.5856C0.0680591 27.4982 0.00772103 27.3747 0 27.2425V22.6978C0.0010804 22.5643 0.0560902 22.4368 0.152534 22.3444C0.248977 22.252 0.378667 22.2025 0.512143 22.2072H3.87335C3.99117 22.2013 4.10625 22.244 4.19168 22.3254ZM58.5908 23.0249C58.0713 23.0142 57.5701 23.2164 57.2035 23.5846C56.8613 23.9283 56.6642 24.3887 56.6501 24.8709L56.6499 24.9745C56.6404 25.4967 56.8437 26.0002 57.213 26.3695C57.5823 26.7388 58.0859 26.9421 58.6081 26.9327C59.1272 26.9446 59.6285 26.7434 59.9952 26.3758C60.3375 26.0327 60.5347 25.5728 60.5488 25.0909L60.549 24.9874C60.5584 24.4648 60.3553 23.9608 59.9861 23.5909C59.617 23.2209 59.1134 23.0166 58.5908 23.0249ZM10.1525 23.1067H9.03781V26.8595L10.1525 26.8423C11.3273 26.8423 12.1041 26.1072 12.1475 25.0749L12.1494 24.9831C12.1583 24.4614 11.9466 23.9601 11.5663 23.6028C11.1861 23.2455 10.6726 23.0653 10.1525 23.1067ZM36.5558 23.3089L35.5444 25.5383H37.5672L36.5558 23.3089ZM63.0269 0.0200913C67.519 0.00745539 71.2262 3.53089 71.4418 8.01783C71.4655 10.2453 70.586 12.3873 69.004 13.9555C67.422 15.5238 65.2723 16.3844 63.0452 16.3412C60.8229 16.3987 58.673 15.549 57.0906 13.9876C55.5081 12.4263 54.6296 10.288 54.6572 8.06517C54.8475 3.57709 58.5348 0.0327954 63.0269 0.0200913ZM19.625 0C20.0671 0 20.4255 0.358392 20.4255 0.800492V15.2653C20.4255 15.7074 20.0671 16.0658 19.625 16.0658H18.407C17.9642 16.0658 17.6046 15.7081 17.6022 15.2653V0.800492C17.6046 0.357697 17.9642 0 18.407 0H19.625ZM31.0513 0C34.7913 0 37.1583 2.11313 37.1583 5.39256C37.1583 9.0206 34.2662 10.9013 30.7286 10.9013H27.5438V15.261C27.5438 15.7055 27.1835 16.0658 26.739 16.0658H25.5211C25.0766 16.0658 24.7163 15.7055 24.7163 15.261V0.774669C24.7186 0.346136 25.0667 0 25.4952 0H31.0513ZM46.364 0C50.1082 0 52.471 2.11313 52.471 5.39256C52.5054 9.0206 49.5961 10.9013 46.0498 10.9013H42.8737V15.2567C42.8737 15.4713 42.7884 15.6771 42.6367 15.8288C42.4849 15.9805 42.2791 16.0658 42.0646 16.0658H40.8552C40.41 16.0634 40.0504 15.7019 40.0504 15.2567V0.723025C40.0504 0.325384 40.3715 0.00236691 40.7691 0H46.364ZM2.00553 0C2.45714 0 2.82324 0.3661 2.82324 0.817707V6.67937H10.4882V0.817707C10.4882 0.3661 10.8543 0 11.3059 0H12.4808C12.9324 0 13.2985 0.3661 13.2985 0.817707V15.2481C13.2985 15.6997 12.9324 16.0658 12.4808 16.0658H11.3059C10.8543 16.0658 10.4882 15.6997 10.4882 15.2481V9.29603H2.82324V15.2481C2.82324 15.6997 2.45714 16.0658 2.00553 16.0658H0.817707C0.3661 16.0658 0 15.6997 0 15.2481V0.817707C0 0.3661 0.3661 0 0.817707 0H2.00553ZM63.0452 2.3154C59.8561 2.3154 57.6311 4.8632 57.6311 8.00922C57.6311 11.1552 59.9035 13.7461 63.0925 13.7461C66.2816 13.7461 68.5066 11.1983 68.5066 8.06517C68.5066 4.93206 66.2343 2.3154 63.0452 2.3154ZM46.1531 2.56932H42.8737V8.35352H46.1531C48.305 8.35352 49.6176 7.18291 49.6176 5.46142C49.6176 3.55487 48.2662 2.56932 46.1531 2.56932ZM30.8232 2.56932H27.5438V8.35352H30.8275C32.9794 8.35352 34.2705 7.18291 34.2705 5.46142C34.2877 3.55487 32.9321 2.56932 30.8232 2.56932Z" fill="white"/>
</svg>
